
    

    <svg xmlns="http://www.w3.org/2000/svg" style="display: none;">
        <symbol id="github" viewBox="0 0 36 37" fill="none" >
            <rect x="0.5" y="0.5" width="35" height="35.324" rx="17.5" stroke="#FBD784"/>
            <path d="M18 8C12.4783 8 8 12.4775 8 18C8 22.4183 10.865 26.1667 14.8392 27.4892C15.3383 27.5817 15.5 27.2717 15.5 27.0083V25.1467C12.7183 25.7517 12.1392 23.9667 12.1392 23.9667C11.6842 22.8108 11.0283 22.5033 11.0283 22.5033C10.1208 21.8825 11.0975 21.8958 11.0975 21.8958C12.1017 21.9658 12.63 22.9267 12.63 22.9267C13.5217 24.455 14.9692 24.0133 15.54 23.7575C15.6292 23.1117 15.8883 22.67 16.175 22.4208C13.9542 22.1667 11.6192 21.3092 11.6192 17.4783C11.6192 16.3858 12.01 15.4942 12.6492 14.7942C12.5458 14.5417 12.2033 13.5242 12.7467 12.1475C12.7467 12.1475 13.5867 11.8792 15.4975 13.1725C16.295 12.9508 17.15 12.84 18 12.8358C18.85 12.84 19.7058 12.9508 20.505 13.1725C22.4142 11.8792 23.2525 12.1475 23.2525 12.1475C23.7967 13.525 23.4542 14.5425 23.3508 14.7942C23.9925 15.4942 24.38 16.3867 24.38 17.4783C24.38 21.3192 22.0408 22.165 19.8142 22.4125C20.1725 22.7225 20.5 23.3308 20.5 24.2642V27.0083C20.5 27.2742 20.66 27.5867 21.1675 27.4883C25.1383 26.1642 28 22.4167 28 18C28 12.4775 23.5225 8 18 8Z" fill="#FBD784"/>
        </symbol>
            

        <symbol id="main-logo" viewBox="0 0 45 45" fill="none">
            <path d="M3.14892 31.4174L1 28.6534L3.12915 19.0851L5.25836 9.51665L13.8791 5.25836L22.5 1L31.1209 5.25836L39.7416 9.51665L41.8709 19.0851L44 28.6534L38.0342 36.3267L32.0684 44H22.5H12.9316L6.96582 36.3267L3.14892 31.4174Z" stroke="#FBD784" stroke-miterlimit="3" stroke-linecap="square"/>
            <path d="M2.99078 31.2592L11.75 22.5L22.5 33.25L33.25 22.5L41.9934 31.2592" stroke="#FBD784" stroke-miterlimit="3" stroke-linecap="square"/>
            <path d="M3.14892 31.4174L1 28.6534L3.12915 19.0851L5.25836 9.51665L13.8791 5.25836L22.5 1L31.1209 5.25836L39.7416 9.51665L41.8709 19.0851L44 28.6534L38.0342 36.3267L32.0684 44H22.5H12.9316L6.96582 36.3267L3.14892 31.4174Z" stroke="#FBD784" stroke-miterlimit="3" stroke-linecap="square"/>
        </symbol>
                

        <symbol id="linkdin" fill="none">
            <rect x="0.5" y="0.5" width="35" height="35.324" rx="17.5" stroke="#FBD784"/>
            <g clip-path="url(#clip0)">
            <path d="M25.9959 26V25.9994H25.9997V20.4981C25.9997 17.8069 25.4203 15.7338 22.274 15.7338C20.7615 15.7338 19.7465 16.5638 19.3322 17.3506H19.2884V15.985H16.3053V25.9994H19.4115V21.0406C19.4115 19.735 19.659 18.4725 21.2759 18.4725C22.869 18.4725 22.8928 19.9625 22.8928 21.1244V26H25.9959Z" fill="#FBD784"/>
            <path d="M11.2472 15.9856H14.3572V26H11.2472V15.9856Z" fill="#FBD784"/>
            <path d="M12.8012 11C11.8069 11 11 11.8069 11 12.8012C11 13.7956 11.8069 14.6194 12.8012 14.6194C13.7956 14.6194 14.6025 13.7956 14.6025 12.8012C14.6019 11.8069 13.795 11 12.8012 11V11Z" fill="#FBD784"/>
            </g>
            <defs>
            <clipPath id="clip0">
            <rect width="15" height="15" fill="white" transform="translate(11 11)"/>
            </clipPath>
            </defs>
            </symbol>
                
                <symbol id="facebook" width="36" height="37" viewBox="0 0 36 37" fill="none">
                    <rect x="0.5" y="0.5" width="35" height="35.324" rx="17.5" stroke="#FBD784"/>
                    <g clip-path="url(#clip0)">
                    <path d="M19.9981 12.603H21.3675V10.1965C21.1313 10.1637 20.3188 10.09 19.3725 10.09C17.3981 10.09 16.0456 11.343 16.0456 13.6461V15.7656H13.8669V18.4558H16.0456V25.225H18.7169V18.4565H20.8075L21.1394 15.7662H18.7163V13.9128C18.7169 13.1353 18.9244 12.603 19.9981 12.603Z" fill="#FBD784"/>
                    </g>
                    <defs>
                    <clipPath id="clip0">
                    <rect width="15" height="15.135" fill="white" transform="translate(10 10.09)"/>
                    </clipPath>
                    </defs>
                    </symbol>

                    <symbol id="hamburger" viewBox="0 0 30 22" fill="none">
                        <path d="M0 0.6875V2.5625H30V0.6875H0ZM0 11.9375H30V10.0625H0V11.9375ZM0 21.3125H30V19.4375H0V21.3125Z" fill="#FBD784"/>
                        </symbol>
                    
                        <symbol id="main-logo-bg" viewBox="0 0 1440 880" fill="none">
                            <path d="M5.51953 497.185L329 179L726 569.5L1123 179L1445.89 497.185" stroke="#FBD784" stroke-opacity="0.5" stroke-width="10" stroke-miterlimit="3" stroke-linecap="square"/>
                            </symbol>
                            
                            <symbol id="javascript" viewBox="0 0 36 37" fill="none">
                                <rect x="0.5" y="0.5" width="35" height="35.324" rx="17.5" stroke="#FBD784"/>
                                <path d="M10 10H25V25.5857H10V10Z" fill="#FBD784"/>
                                <path d="M13.9441 23.0245L15.092 22.3027C15.3134 22.7107 15.5149 23.0559 15.9981 23.0559C16.4613 23.0559 16.7533 22.8676 16.7533 22.1353V17.1553H18.1629V22.156C18.1629 23.6731 17.3071 24.3636 16.0585 24.3636C14.9309 24.3636 14.2763 23.7567 13.944 23.0244" fill="#494747"/>
                                <path d="M18.9286 22.8676L20.0764 22.1771C20.3785 22.6898 20.7712 23.0664 21.4659 23.0664C22.05 23.0664 22.4224 22.763 22.4224 22.3445C22.4224 21.8423 22.0398 21.6644 21.3954 21.3716L21.0431 21.2145C20.0261 20.7648 19.3514 20.1998 19.3514 19.0071C19.3514 17.9086 20.1569 17.0716 21.4156 17.0716C22.3117 17.0716 22.9561 17.396 23.4193 18.2434L22.3217 18.9757C22.0801 18.5259 21.8184 18.348 21.4156 18.348C21.0028 18.348 20.741 18.62 20.741 18.9757C20.741 19.4151 21.0028 19.593 21.6069 19.865L21.9592 20.022C23.1574 20.5556 23.8321 21.0995 23.8321 22.3236C23.8321 23.6419 22.8353 24.3637 21.4961 24.3637C20.1872 24.3637 19.3414 23.7151 18.9286 22.8676" fill="#494747"/>
                                </symbol>
                                
                                <symbol id="python" viewBox="0 0 36 37" fill="none">
                                    <rect x="0.5" y="0.5" width="35" height="35.324" rx="17.5" stroke="#FBD784"/>
                                    <path d="M17.4286 10.0051C13.1233 10.0051 13.3921 11.8794 13.3921 11.8794L13.3969 13.8212H17.5054V14.4042H11.7651C11.7651 14.4042 9.01016 14.0906 9.01016 18.4517C9.01016 22.8128 11.4147 22.6581 11.4147 22.6581H12.8498V20.6344C12.8498 20.6344 12.7724 18.2204 15.216 18.2204H19.2908C19.2908 18.2204 21.5802 18.2575 21.5802 15.9991V12.2649C21.5802 12.2649 21.9278 10.0051 17.4286 10.0051ZM15.1632 11.3108C15.5719 11.3108 15.9023 11.6425 15.9023 12.0529C15.9023 12.4632 15.5719 12.7949 15.1632 12.7949C14.7544 12.7949 14.4241 12.4632 14.4241 12.0529C14.4241 11.6425 14.7544 11.3108 15.1632 11.3108Z" fill="#FBD784"/>
                                    <path d="M17.5503 26.9417C21.8555 26.9417 21.5867 25.0673 21.5867 25.0673L21.5819 23.1255H17.4735V22.5425H23.2137C23.2137 22.5425 25.9687 22.8562 25.9687 18.4951C25.9687 14.134 23.5641 14.2886 23.5641 14.2886H22.129V16.3124C22.129 16.3124 22.2064 18.7264 19.7629 18.7264H15.688C15.688 18.7264 13.3987 18.6892 13.3987 20.9476V24.6819C13.3987 24.6819 13.0511 26.9417 17.5503 26.9417ZM19.8156 25.6359C19.4069 25.6359 19.0765 25.3042 19.0765 24.8939C19.0765 24.4835 19.4069 24.1518 19.8156 24.1518C20.2244 24.1518 20.5548 24.4835 20.5548 24.8939C20.5548 25.3042 20.2244 25.6359 19.8156 25.6359Z" fill="#FBD784"/>
                                    </symbol>
                                    
                                    

                                    <symbol id="java" viewBox="0 0 36 37" fill="none">
                                        <rect x="0.5" y="0.5" width="35" height="35.324" rx="17.5" stroke="#FBD784"/>
                                        <path fill-rule="evenodd" clip-rule="evenodd" d="M19.5486 8.08569C20.0056 8.62084 20.1564 9.38606 20.025 10.0763C19.884 10.8515 19.4658 11.5367 18.9748 12.1268C18.5809 12.602 18.1287 13.0221 17.6571 13.4122C17.1076 13.8673 16.5679 14.3575 16.2226 14.9976C15.9309 15.5178 15.8628 16.158 16.0622 16.7231C16.3879 17.6934 17.1465 18.4136 17.5598 19.3288C17.1027 18.9137 16.6554 18.4836 16.2372 18.0285C15.7996 17.5483 15.3863 17.0382 15.114 16.438C14.9292 16.0179 14.8465 15.5278 14.9876 15.0827C15.1286 14.6275 15.4446 14.2624 15.7607 13.9223C16.6408 13.0171 17.7252 12.3519 18.5858 11.4316C19.0624 10.9265 19.4562 10.3213 19.5923 9.62612C19.7042 9.11598 19.6507 8.59083 19.5486 8.08569" fill="#FBD784"/>
                                        <path fill-rule="evenodd" clip-rule="evenodd" d="M19.5486 8.08569C20.0056 8.62084 20.1564 9.38606 20.025 10.0763C19.884 10.8515 19.4658 11.5367 18.9748 12.1268C18.5809 12.602 18.1287 13.0221 17.6571 13.4122C17.1076 13.8673 16.5679 14.3575 16.2226 14.9976C15.9309 15.5178 15.8628 16.158 16.0622 16.7231C16.3879 17.6934 17.1465 18.4136 17.5598 19.3288C17.1027 18.9137 16.6554 18.4836 16.2372 18.0285C15.7996 17.5483 15.3863 17.0382 15.114 16.438C14.9292 16.0179 14.8465 15.5278 14.9876 15.0827C15.1286 14.6275 15.4446 14.2624 15.7607 13.9223C16.6408 13.0171 17.7252 12.3519 18.5858 11.4316C19.0624 10.9265 19.4562 10.3213 19.5923 9.62612C19.7042 9.11598 19.6507 8.59083 19.5486 8.08569Z" stroke="#FBD784" stroke-width="0.094"/>
                                        <path fill-rule="evenodd" clip-rule="evenodd" d="M18.8289 13.7823C19.7723 13.0671 20.876 12.612 21.9944 12.2819C21.1094 12.862 20.1856 13.3922 19.4221 14.1374C19.145 14.4125 18.8824 14.7275 18.7608 15.1127C18.6684 15.3977 18.7074 15.7128 18.8193 15.9829C19.0234 16.463 19.3686 16.8531 19.6312 17.2933C19.8549 17.6684 19.8938 18.1485 19.7236 18.5536C19.4659 19.1488 18.9602 19.5839 18.4351 19.929C18.367 19.969 18.3087 20.044 18.2259 20.054C18.5761 19.7289 18.8484 19.2688 18.8386 18.7737C18.8289 18.4036 18.6296 18.0785 18.3961 17.8134C17.9147 17.2232 17.5112 16.473 17.5939 15.6778C17.6766 14.8826 18.2308 14.2424 18.8289 13.7823" fill="#FBD784"/>
                                        <path fill-rule="evenodd" clip-rule="evenodd" d="M18.8289 13.7823C19.7723 13.0671 20.876 12.612 21.9944 12.2819C21.1094 12.862 20.1856 13.3922 19.4221 14.1374C19.145 14.4125 18.8824 14.7275 18.7608 15.1127C18.6684 15.3977 18.7074 15.7128 18.8193 15.9829C19.0234 16.463 19.3686 16.8531 19.6312 17.2933C19.8549 17.6684 19.8938 18.1485 19.7236 18.5536C19.4659 19.1488 18.9602 19.5839 18.4351 19.929C18.367 19.969 18.3087 20.044 18.2259 20.054C18.5761 19.7289 18.8484 19.2688 18.8386 18.7737C18.8289 18.4036 18.6296 18.0785 18.3961 17.8134C17.9147 17.2232 17.5112 16.473 17.5939 15.6778C17.6766 14.8826 18.2308 14.2424 18.8289 13.7823Z" stroke="#FBD784" stroke-width="0.094"/>
                                        <path fill-rule="evenodd" clip-rule="evenodd" d="M22.1744 19.5639C22.3785 19.3089 22.7043 19.2439 23.001 19.2038C23.5164 19.1338 24.0658 19.2689 24.4548 19.634C24.7758 19.929 24.9556 20.3892 24.8875 20.8343C24.8146 21.3494 24.4791 21.7796 24.0999 22.1047C23.4143 22.6698 22.5682 22.9999 21.7221 23.22C21.7707 23.1649 21.8242 23.1149 21.8874 23.0749C22.5292 22.7198 23.1662 22.3047 23.6379 21.7245C23.9249 21.3644 24.1485 20.8943 24.0561 20.4192C23.9588 19.869 23.4386 19.4689 22.9085 19.4389C22.6557 19.4139 22.4175 19.5139 22.1744 19.5639" fill="#FBD784"/>
                                        <path fill-rule="evenodd" clip-rule="evenodd" d="M22.1744 19.5639C22.3785 19.3089 22.7043 19.2439 23.001 19.2038C23.5164 19.1338 24.0658 19.2689 24.4548 19.634C24.7758 19.929 24.9556 20.3892 24.8875 20.8343C24.8146 21.3494 24.4791 21.7796 24.0999 22.1047C23.4143 22.6698 22.5682 22.9999 21.7221 23.22C21.7707 23.1649 21.8242 23.1149 21.8874 23.0749C22.5292 22.7198 23.1662 22.3047 23.6379 21.7245C23.9249 21.3644 24.1485 20.8943 24.0561 20.4192C23.9588 19.869 23.4386 19.4689 22.9085 19.4389C22.6557 19.4139 22.4175 19.5139 22.1744 19.5639Z" stroke="#FBD784" stroke-width="0.094"/>
                                        <path fill-rule="evenodd" clip-rule="evenodd" d="M12.4007 20.019C13.2954 19.6239 14.2679 19.3689 15.2453 19.3839C14.6764 19.5539 14.0929 19.699 13.558 19.959C13.4316 20.029 13.2857 20.0941 13.2128 20.2291C13.1738 20.3341 13.2809 20.4042 13.3587 20.4392C13.6893 20.5792 14.054 20.5992 14.4089 20.6342C15.6537 20.7192 16.9034 20.6692 18.1433 20.5892C19.3686 20.5092 20.5842 20.3391 21.795 20.1391C21.5276 20.2691 21.2553 20.3992 21.0074 20.5642C20.8808 20.6542 20.7253 20.6792 20.5842 20.7142C19.0964 21.0543 17.5696 21.1594 16.0525 21.1844C15.4641 21.1894 14.8806 21.1794 14.2971 21.1394C13.6455 21.0943 12.9891 21.0443 12.3521 20.8693C12.1673 20.8143 11.9728 20.7543 11.827 20.6192C11.754 20.5592 11.754 20.4392 11.8172 20.3691C11.9777 20.1991 12.2014 20.1191 12.4007 20.019" fill="#FBD784"/>
                                        <path fill-rule="evenodd" clip-rule="evenodd" d="M12.4007 20.019C13.2954 19.6239 14.2679 19.3689 15.2453 19.3839C14.6764 19.5539 14.0929 19.699 13.558 19.959C13.4316 20.029 13.2857 20.0941 13.2128 20.2291C13.1738 20.3341 13.2809 20.4042 13.3587 20.4392C13.6893 20.5792 14.054 20.5992 14.4089 20.6342C15.6537 20.7192 16.9034 20.6692 18.1433 20.5892C19.3686 20.5092 20.5842 20.3391 21.795 20.1391C21.5276 20.2691 21.2553 20.3992 21.0074 20.5642C20.8808 20.6542 20.7253 20.6792 20.5842 20.7142C19.0964 21.0543 17.5696 21.1594 16.0525 21.1844C15.4641 21.1894 14.8806 21.1794 14.2971 21.1394C13.6455 21.0943 12.9891 21.0443 12.3521 20.8693C12.1673 20.8143 11.9728 20.7543 11.827 20.6192C11.754 20.5592 11.754 20.4392 11.8172 20.3691C11.9777 20.1991 12.2014 20.1191 12.4007 20.019Z" stroke="#FBD784" stroke-width="0.094"/>
                                        <path fill-rule="evenodd" clip-rule="evenodd" d="M13.5483 22.1547C13.8012 21.9496 14.1026 21.8346 14.4041 21.7245C14.3069 21.8446 14.1707 21.9596 14.161 22.1247C14.1561 22.2297 14.2388 22.3097 14.3214 22.3597C14.4819 22.4448 14.6618 22.4748 14.8417 22.4998C15.7753 22.5998 16.7186 22.6548 17.662 22.5898C18.5226 22.5448 19.3785 22.3997 20.2294 22.2447C20.4627 22.4698 20.74 22.6248 21.0317 22.7598C20.0056 23.0699 18.9505 23.25 17.8905 23.3349C16.8888 23.405 15.8726 23.4 14.8758 23.2349C14.4819 23.1599 14.0783 23.0749 13.7185 22.8849C13.5726 22.8049 13.4073 22.6998 13.3635 22.5248C13.3344 22.3747 13.4413 22.2397 13.5483 22.1547" fill="#FBD784"/>
                                        <path fill-rule="evenodd" clip-rule="evenodd" d="M13.5483 22.1547C13.8012 21.9496 14.1026 21.8346 14.4041 21.7245C14.3069 21.8446 14.1707 21.9596 14.161 22.1247C14.1561 22.2297 14.2388 22.3097 14.3214 22.3597C14.4819 22.4448 14.6618 22.4748 14.8417 22.4998C15.7753 22.5998 16.7186 22.6548 17.662 22.5898C18.5226 22.5448 19.3785 22.3997 20.2294 22.2447C20.4627 22.4698 20.74 22.6248 21.0317 22.7598C20.0056 23.0699 18.9505 23.25 17.8905 23.3349C16.8888 23.405 15.8726 23.4 14.8758 23.2349C14.4819 23.1599 14.0783 23.0749 13.7185 22.8849C13.5726 22.8049 13.4073 22.6998 13.3635 22.5248C13.3344 22.3747 13.4413 22.2397 13.5483 22.1547Z" stroke="#FBD784" stroke-width="0.094"/>
                                        <path fill-rule="evenodd" clip-rule="evenodd" d="M14.1123 24.3352C14.336 24.1502 14.6132 24.0552 14.8855 23.9752C14.798 24.0601 14.6424 24.1652 14.7104 24.3102C14.8417 24.4853 15.0848 24.5053 15.2793 24.5503C16.1011 24.6554 16.9326 24.7254 17.7543 24.6603C18.3767 24.6204 18.9895 24.5053 19.5973 24.3953C19.9473 24.6053 20.312 24.7853 20.6864 24.9455C20.1126 25.2105 19.4951 25.3806 18.8776 25.5006C17.837 25.6906 16.7624 25.7156 15.717 25.5457C15.255 25.4605 14.7834 25.3505 14.3652 25.1154C14.2047 25.0205 14.0345 24.9104 13.9665 24.7254C13.913 24.5803 14.0005 24.4253 14.1123 24.3352" fill="#FBD784"/>
                                        <path fill-rule="evenodd" clip-rule="evenodd" d="M14.1123 24.3352C14.336 24.1502 14.6132 24.0552 14.8855 23.9752C14.798 24.0601 14.6424 24.1652 14.7104 24.3102C14.8417 24.4853 15.0848 24.5053 15.2793 24.5503C16.1011 24.6554 16.9326 24.7254 17.7543 24.6603C18.3767 24.6204 18.9895 24.5053 19.5973 24.3953C19.9473 24.6053 20.312 24.7853 20.6864 24.9455C20.1126 25.2105 19.4951 25.3806 18.8776 25.5006C17.837 25.6906 16.7624 25.7156 15.717 25.5457C15.255 25.4605 14.7834 25.3505 14.3652 25.1154C14.2047 25.0205 14.0345 24.9104 13.9665 24.7254C13.913 24.5803 14.0005 24.4253 14.1123 24.3352Z" stroke="#FBD784" stroke-width="0.094"/>
                                        <path fill-rule="evenodd" clip-rule="evenodd" d="M11.4137 25.7507C11.861 25.5957 12.323 25.4707 12.7946 25.4556C12.9843 25.4506 13.1788 25.4606 13.3441 25.5606C12.78 25.5957 12.216 25.7406 11.7103 26.0058C11.5985 26.0708 11.472 26.1459 11.4283 26.2809C11.4283 26.4358 11.5985 26.4859 11.7103 26.5359C12.4153 26.806 13.169 26.891 13.9081 26.9711C16.1108 27.161 18.3281 27.111 20.5308 26.906C21.3623 26.8109 22.1987 26.7159 23.0058 26.4809C23.2635 26.3908 23.5552 26.3009 23.7254 26.0657C23.8276 25.9258 23.7595 25.7507 23.6574 25.6307C23.8227 25.7257 24.0561 25.8458 24.0221 26.0758C23.9589 26.3158 23.7205 26.4408 23.5261 26.5559C22.9038 26.881 22.218 27.0461 21.5373 27.1911C19.5583 27.5912 17.5307 27.6812 15.5176 27.6213C14.0005 27.5662 12.4834 27.4161 10.9858 27.1511C10.7183 27.086 10.4169 27.0311 10.2224 26.816C10.0959 26.6659 10.2078 26.4559 10.3293 26.3459C10.6357 26.0558 11.0295 25.8958 11.4137 25.7507" fill="#FBD784"/>
                                        <path fill-rule="evenodd" clip-rule="evenodd" d="M11.4137 25.7507C11.861 25.5957 12.323 25.4707 12.7946 25.4556C12.9843 25.4506 13.1788 25.4606 13.3441 25.5606C12.78 25.5957 12.216 25.7406 11.7103 26.0058C11.5985 26.0708 11.472 26.1459 11.4283 26.2809C11.4283 26.4358 11.5985 26.4859 11.7103 26.5359C12.4153 26.806 13.169 26.891 13.9081 26.9711C16.1108 27.161 18.3281 27.111 20.5308 26.906C21.3623 26.8109 22.1987 26.7159 23.0058 26.4809C23.2635 26.3908 23.5552 26.3009 23.7254 26.0657C23.8276 25.9258 23.7595 25.7507 23.6574 25.6307C23.8227 25.7257 24.0561 25.8458 24.0221 26.0758C23.9589 26.3158 23.7205 26.4408 23.5261 26.5559C22.9038 26.881 22.218 27.0461 21.5373 27.1911C19.5583 27.5912 17.5307 27.6812 15.5176 27.6213C14.0005 27.5662 12.4834 27.4161 10.9858 27.1511C10.7183 27.086 10.4169 27.0311 10.2224 26.816C10.0959 26.6659 10.2078 26.4559 10.3293 26.3459C10.6357 26.0558 11.0295 25.8958 11.4137 25.7507Z" stroke="#FBD784" stroke-width="0.094"/>
                                        <path fill-rule="evenodd" clip-rule="evenodd" d="M23.5309 27.4611C24.0221 27.286 24.5472 27.101 24.9119 26.7009C24.8487 27.136 24.4841 27.4361 24.1242 27.6312C23.4337 28.0013 22.6606 28.1714 21.8923 28.3113C20.2682 28.5765 18.6198 28.6414 16.9715 28.6114C15.8483 28.5765 14.7153 28.5314 13.6115 28.2913C13.3489 28.2163 13.0669 28.1663 12.8384 28.0063C13.8206 28.1763 14.8174 28.2464 15.8142 28.2863C17.4529 28.3363 19.0964 28.2714 20.7253 28.0613C21.6686 27.9263 22.6168 27.7612 23.5309 27.4611" fill="#FBD784"/>
                                        <path fill-rule="evenodd" clip-rule="evenodd" d="M23.5309 27.4611C24.0221 27.286 24.5472 27.101 24.9119 26.7009C24.8487 27.136 24.4841 27.4361 24.1242 27.6312C23.4337 28.0013 22.6606 28.1714 21.8923 28.3113C20.2682 28.5765 18.6198 28.6414 16.9715 28.6114C15.8483 28.5765 14.7153 28.5314 13.6115 28.2913C13.3489 28.2163 13.0669 28.1663 12.8384 28.0063C13.8206 28.1763 14.8174 28.2464 15.8142 28.2863C17.4529 28.3363 19.0964 28.2714 20.7253 28.0613C21.6686 27.9263 22.6168 27.7612 23.5309 27.4611Z" stroke="#FBD784" stroke-width="0.094"/>
                                        </symbol>
                                      
                                        <symbol id="express" viewBox="0 0 36 37" fill="none" >
                                            <rect x="0.5" y="0.5" width="35" height="35.324" rx="17.5" stroke="#FBD784"/>
                                            <path d="M11.1667 23.25V20.3208C11.1667 20.0059 11.0416 19.7038 10.8189 19.4811C10.5962 19.2584 10.2941 19.1333 9.97917 19.1333H9.58334V17.8667H9.97917C10.1351 17.8667 10.2895 17.836 10.4336 17.7763C10.5777 17.7166 10.7086 17.6291 10.8189 17.5189C10.9291 17.4086 11.0166 17.2777 11.0763 17.1336C11.136 16.9895 11.1667 16.8351 11.1667 16.6792V13.75C11.1667 13.1201 11.4169 12.516 11.8623 12.0706C12.3077 11.6252 12.9118 11.375 13.5417 11.375H14.3333V12.9583H13.5417C13.3317 12.9583 13.1303 13.0417 12.9819 13.1902C12.8334 13.3387 12.75 13.54 12.75 13.75V16.9958C12.7501 17.3291 12.645 17.654 12.4497 17.924C12.2544 18.1941 11.9788 18.3957 11.6623 18.5C11.9788 18.6043 12.2544 18.8059 12.4497 19.076C12.645 19.346 12.7501 19.6709 12.75 20.0042V23.25C12.75 23.46 12.8334 23.6613 12.9819 23.8098C13.1303 23.9583 13.3317 24.0417 13.5417 24.0417H14.3333V25.625H13.5417C12.9118 25.625 12.3077 25.3748 11.8623 24.9294C11.4169 24.484 11.1667 23.8799 11.1667 23.25V23.25ZM23.8333 20.3208V23.25C23.8333 23.8799 23.5831 24.484 23.1377 24.9294C22.6923 25.3748 22.0882 25.625 21.4583 25.625H20.6667V24.0417H21.4583C21.6683 24.0417 21.8697 23.9583 22.0181 23.8098C22.1666 23.6613 22.25 23.46 22.25 23.25V20.0042C22.2499 19.6709 22.355 19.346 22.5503 19.076C22.7456 18.8059 23.0212 18.6043 23.3378 18.5C23.0212 18.3957 22.7456 18.1941 22.5503 17.924C22.355 17.654 22.2499 17.3291 22.25 16.9958V13.75C22.25 13.54 22.1666 13.3387 22.0181 13.1902C21.8697 13.0417 21.6683 12.9583 21.4583 12.9583H20.6667V11.375H21.4583C22.0882 11.375 22.6923 11.6252 23.1377 12.0706C23.5831 12.516 23.8333 13.1201 23.8333 13.75V16.6792C23.8333 16.9941 23.9584 17.2962 24.1811 17.5189C24.4038 17.7416 24.7059 17.8667 25.0208 17.8667H25.4167V19.1333H25.0208C24.7059 19.1333 24.4038 19.2584 24.1811 19.4811C23.9584 19.7038 23.8333 20.0059 23.8333 20.3208V20.3208Z" fill="#FBD784"/>
                                            </symbol>
                                            

                                            <symbol id="node" viewBox="0 0 36 37" fill="none" >
                                                <path d="M18.4337 26.361C18.2028 26.361 17.9873 26.2972 17.7872 26.1856L15.7403 24.9256C15.4325 24.7501 15.5864 24.6863 15.6787 24.6544C16.0943 24.5109 16.1712 24.479 16.6022 24.2238C16.6483 24.1919 16.7099 24.2078 16.7561 24.2397L18.3259 25.2127C18.3875 25.2446 18.4644 25.2446 18.5106 25.2127L24.6515 21.5283C24.713 21.4964 24.7438 21.4326 24.7438 21.3529V14.0002C24.7438 13.9204 24.713 13.8566 24.6515 13.8247L18.5106 10.1563C18.449 10.1244 18.3721 10.1244 18.3259 10.1563L12.1851 13.8247C12.1235 13.8566 12.0927 13.9364 12.0927 14.0002V21.3529C12.0927 21.4167 12.1235 21.4964 12.1851 21.5283L13.8626 22.5331C14.7707 23.0116 15.3401 22.4534 15.3401 21.8952V14.6381C15.3401 14.5424 15.4171 14.4468 15.5248 14.4468H16.3098C16.4021 14.4468 16.4944 14.5265 16.4944 14.6381V21.8952C16.4944 23.1552 15.8326 23.8889 14.6784 23.8889C14.3244 23.8889 14.0473 23.8888 13.2624 23.4901L11.6464 22.5331C11.2462 22.2939 11 21.8473 11 21.3688V14.0161C11 13.5376 11.2462 13.091 11.6464 12.8518L17.7872 9.16747C18.172 8.94418 18.6953 8.94418 19.0801 9.16747L25.2209 12.8518C25.6211 13.091 25.8673 13.5376 25.8673 14.0161V21.3688C25.8673 21.8473 25.6211 22.2939 25.2209 22.5331L19.0801 26.2175C18.88 26.3132 18.6491 26.361 18.4337 26.361ZM20.3267 21.305C17.6333 21.305 17.0793 20.0291 17.0793 18.9445C17.0793 18.8488 17.1562 18.7531 17.264 18.7531H18.0643C18.1566 18.7531 18.2336 18.8169 18.2336 18.9126C18.3567 19.7579 18.7107 20.1726 20.3421 20.1726C21.6349 20.1726 22.189 19.8696 22.189 19.1519C22.189 18.7372 22.0351 18.4341 20.0189 18.2268C18.3413 18.0513 17.2948 17.6685 17.2948 16.2809C17.2948 14.989 18.3413 14.2235 20.0958 14.2235C22.0658 14.2235 23.0354 14.9252 23.1586 16.4564C23.1586 16.5042 23.1432 16.5521 23.1124 16.5999C23.0816 16.6318 23.0354 16.6637 22.9893 16.6637H22.189C22.112 16.6637 22.0351 16.5999 22.0197 16.5202C21.835 15.643 21.3579 15.3559 20.0958 15.3559C18.6799 15.3559 18.5106 15.8663 18.5106 16.249C18.5106 16.7116 18.7107 16.8551 20.6191 17.1103C22.5122 17.3655 23.4048 17.7323 23.4048 19.104C23.3894 20.5076 22.2813 21.305 20.3267 21.305Z" fill="#FBD784"/>
                                                <rect x="0.5" y="0.5" width="35" height="35.324" rx="17.5" stroke="#FBD784"/>
                                                </symbol>
                                                
                                                <symbol id="html" viewBox="0 0 36 37" fill="none">
                                                    <rect x="0.5" y="0.5" width="35" height="35.324" rx="17.5" stroke="#FBD784"/>
                                                    <path d="M18 23.6335L21.465 22.6915L21.9323 17.608H15.7695L15.6165 15.9175H22.086L22.2562 14.2592H13.7437L14.2207 19.2678H20.0858L19.89 21.4172L18 21.9175L16.11 21.4172L15.9915 20.0343H14.289L14.5357 22.6923L18 23.6335ZM11.25 11.5H24.75L23.5328 25L18 26.5L12.4673 25L11.25 11.5Z" fill="#FBD784"/>
                                                    </symbol>
                                                    
                                                    <symbol id="circle" viewBox="0 0 4 4" fill="none">
<path d="M1.80125 0C0.806875 0 0 0.806875 0 1.80125C0 2.79562 0.806875 3.61937 1.80125 3.61937C2.79562 3.61937 3.6025 2.79562 3.6025 1.80125C3.60188 0.806875 2.795 0 1.80125 0V0Z" fill="#FBD784"/>
</symbol>

<symbol id="mail" viewBox="0 0 36 37" fill="none">
<rect x="0.5" y="0.5" width="35" height="35.324" rx="17.5" stroke="#FBD784"/>
<path d="M10.375 11.25H24.625C24.8349 11.25 25.0363 11.329 25.1848 11.4697C25.3332 11.6103 25.4166 11.8011 25.4166 12V24C25.4166 24.1989 25.3332 24.3897 25.1848 24.5303C25.0363 24.671 24.8349 24.75 24.625 24.75H10.375C10.165 24.75 9.96365 24.671 9.81519 24.5303C9.66672 24.3897 9.58331 24.1989 9.58331 24V12C9.58331 11.8011 9.66672 11.6103 9.81519 11.4697C9.96365 11.329 10.165 11.25 10.375 11.25V11.25ZM17.5475 17.7622L12.4713 13.6785L11.4461 14.8215L17.5578 19.7378L23.5594 14.8177L22.5239 13.683L17.5483 17.7622H17.5475Z" fill="#FBD784"/>
</symbol>

                                     
                
      
      </svg>
      