
    

    <svg xmlns="http://www.w3.org/2000/svg" style="display: none;">
        <symbol id="github">
            <rect x="0.5" y="0.5" width="35" height="35.324" rx="17.5" stroke="#FBD784"/>
            <path d="M18 8C12.4783 8 8 12.4775 8 18C8 22.4183 10.865 26.1667 14.8392 27.4892C15.3383 27.5817 15.5 27.2717 15.5 27.0083V25.1467C12.7183 25.7517 12.1392 23.9667 12.1392 23.9667C11.6842 22.8108 11.0283 22.5033 11.0283 22.5033C10.1208 21.8825 11.0975 21.8958 11.0975 21.8958C12.1017 21.9658 12.63 22.9267 12.63 22.9267C13.5217 24.455 14.9692 24.0133 15.54 23.7575C15.6292 23.1117 15.8883 22.67 16.175 22.4208C13.9542 22.1667 11.6192 21.3092 11.6192 17.4783C11.6192 16.3858 12.01 15.4942 12.6492 14.7942C12.5458 14.5417 12.2033 13.5242 12.7467 12.1475C12.7467 12.1475 13.5867 11.8792 15.4975 13.1725C16.295 12.9508 17.15 12.84 18 12.8358C18.85 12.84 19.7058 12.9508 20.505 13.1725C22.4142 11.8792 23.2525 12.1475 23.2525 12.1475C23.7967 13.525 23.4542 14.5425 23.3508 14.7942C23.9925 15.4942 24.38 16.3867 24.38 17.4783C24.38 21.3192 22.0408 22.165 19.8142 22.4125C20.1725 22.7225 20.5 23.3308 20.5 24.2642V27.0083C20.5 27.2742 20.66 27.5867 21.1675 27.4883C25.1383 26.1642 28 22.4167 28 18C28 12.4775 23.5225 8 18 8Z" fill="#FBD784"/>
        </symbol>

        <symbol id="main-logo">
            <path d="M3.14892 31.4174L1 28.6534L3.12915 19.0851L5.25836 9.51665L13.8791 5.25836L22.5 1L31.1209 5.25836L39.7416 9.51665L41.8709 19.0851L44 28.6534L38.0342 36.3267L32.0684 44H22.5H12.9316L6.96582 36.3267L3.14892 31.4174Z" stroke="#FBD784" stroke-miterlimit="3" stroke-linecap="square"/>
            <path d="M2.99078 31.2592L11.75 22.5L22.5 33.25L33.25 22.5L41.9934 31.2592" stroke="#FBD784" stroke-miterlimit="3" stroke-linecap="square"/>
            <path d="M3.14892 31.4174L1 28.6534L3.12915 19.0851L5.25836 9.51665L13.8791 5.25836L22.5 1L31.1209 5.25836L39.7416 9.51665L41.8709 19.0851L44 28.6534L38.0342 36.3267L32.0684 44H22.5H12.9316L6.96582 36.3267L3.14892 31.4174Z" stroke="#FBD784" stroke-miterlimit="3" stroke-linecap="square"/>
            </symbol>

            <symbol id="linkdin" viewBox="0 0 36 37" fill="none">
                <rect x="0.5" y="0.5" width="35" height="35.324" rx="17.5" stroke="#FBD784"/>
                <g clip-path="url(#clip0)">
                <path d="M25.9959 26V25.9994H25.9997V20.4981C25.9997 17.8069 25.4203 15.7338 22.274 15.7338C20.7615 15.7338 19.7465 16.5638 19.3322 17.3506H19.2884V15.985H16.3053V25.9994H19.4115V21.0406C19.4115 19.735 19.659 18.4725 21.2759 18.4725C22.869 18.4725 22.8928 19.9625 22.8928 21.1244V26H25.9959Z" fill="#FBD784"/>
                <path d="M11.2472 15.9856H14.3572V26H11.2472V15.9856Z" fill="#FBD784"/>
                <path d="M12.8012 11C11.8069 11 11 11.8069 11 12.8012C11 13.7956 11.8069 14.6194 12.8012 14.6194C13.7956 14.6194 14.6025 13.7956 14.6025 12.8012C14.6019 11.8069 13.795 11 12.8012 11V11Z" fill="#FBD784"/>
                </g>
                <defs>
                <clipPath id="clip0">
                <rect width="15" height="15" fill="white" transform="translate(11 11)"/>
                </clipPath>
                </defs>
                </symbol>
                
                <symbol id="facebook" width="36" height="37" viewBox="0 0 36 37" fill="none">
                    <rect x="0.5" y="0.5" width="35" height="35.324" rx="17.5" stroke="#FBD784"/>
                    <g clip-path="url(#clip0)">
                    <path d="M19.9981 12.603H21.3675V10.1965C21.1313 10.1637 20.3188 10.09 19.3725 10.09C17.3981 10.09 16.0456 11.343 16.0456 13.6461V15.7656H13.8669V18.4558H16.0456V25.225H18.7169V18.4565H20.8075L21.1394 15.7662H18.7163V13.9128C18.7169 13.1353 18.9244 12.603 19.9981 12.603Z" fill="#FBD784"/>
                    </g>
                    <defs>
                    <clipPath id="clip0">
                    <rect width="15" height="15.135" fill="white" transform="translate(10 10.09)"/>
                    </clipPath>
                    </defs>
                    </symbol>
                                     
                
      
      </svg>
      